<?xml version="1.0" standalone="no"?>
<!DOCTYPE svg PUBLIC "-//W3C//DTD SVG 20010904//EN"
 "http://www.w3.org/TR/2001/REC-SVG-20010904/DTD/svg10.dtd">
<svg version="1.0" xmlns="http://www.w3.org/2000/svg"
 width="4000.000000pt" height="4000.000000pt" viewBox="0 0 4000.000000 4000.000000"
 preserveAspectRatio="xMidYMid meet">

<g transform="translate(0.000000,4000.000000) scale(0.100000,-0.100000)"
fill="#000000" stroke="none">
<path d="M22275 34063 c-382 -6 -851 -34 -1205 -74 -317 -35 -772 -104 -807
-122 -39 -21 -406 -322 -593 -486 -47 -41 -174 -158 -284 -260 -109 -102 -208
-193 -220 -202 -11 -9 -266 -89 -566 -179 -662 -197 -856 -260 -1385 -447
-481 -170 -700 -253 -885 -336 -74 -33 -169 -75 -210 -93 -41 -19 -88 -34
-103 -34 -74 0 -141 -71 -331 -355 -288 -427 -603 -980 -900 -1580 -191 -384
-239 -491 -388 -854 -54 -134 -108 -260 -118 -280 -55 -104 -53 -90 -47 -326
6 -242 35 -514 82 -780 120 -684 273 -1273 520 -1997 52 -152 54 -159 40 -197
-7 -21 -120 -200 -250 -397 -397 -600 -686 -1061 -745 -1186 -64 -136 -252
-863 -354 -1363 -129 -635 -253 -1493 -302 -2075 -8 -107 -17 -196 -18 -197
-1 -2 -19 84 -40 190 -194 990 -259 1513 -259 2097 0 281 10 410 45 580 12 58
22 125 22 150 1 37 -3 46 -24 57 -35 18 -135 16 -176 -3 -24 -11 -71 -65 -155
-174 -409 -534 -974 -1437 -1562 -2500 -406 -734 -910 -1759 -1108 -2254 -48
-119 -51 -136 -123 -812 -115 -1060 -182 -1884 -206 -2534 -6 -157 -14 -319
-17 -360 l-6 -75 -24 95 c-272 1110 -374 1766 -376 2415 -1 268 6 387 44 708
14 121 16 173 9 187 -25 46 -123 69 -216 50 -51 -10 -66 -19 -109 -64 -86 -89
-468 -636 -710 -1018 -316 -495 -584 -955 -857 -1463 -283 -528 -1079 -2150
-1139 -2320 -46 -134 -159 -827 -213 -1310 -34 -305 -82 -836 -96 -1060 -7
-99 -15 -189 -19 -200 -8 -19 -10 12 -31 395 -31 570 -31 1186 1 1542 11 130
11 132 -10 149 -31 25 -98 33 -146 17 -45 -15 -22 15 -316 -403 -469 -666
-992 -1479 -1317 -2048 -254 -444 -528 -968 -566 -1082 -57 -174 -98 -863 -95
-1575 l2 -415 -165 -275 c-91 -151 -299 -498 -462 -770 -163 -272 -301 -502
-306 -510 -5 -8 -34 -132 -65 -275 -31 -143 -77 -352 -102 -465 -55 -252 -137
-658 -197 -976 -41 -216 -59 -318 -125 -694 -153 -873 -316 -1955 -426 -2825
-25 -198 -47 -372 -50 -387 l-4 -28 17914 0 c17052 0 17914 1 17919 18 12 42
57 255 70 337 29 167 59 721 81 1490 3 99 7 254 10 345 3 91 7 273 10 405 3
132 7 332 10 445 3 113 7 322 10 465 9 426 25 934 40 1205 3 47 7 132 10 190
15 280 37 522 50 547 16 31 11 46 -123 358 -325 755 -777 1678 -1194 2433 -70
129 -144 258 -164 288 -77 116 -204 202 -1384 937 -256 159 -504 314 -551 344
-47 29 -93 61 -101 71 -8 9 -79 130 -158 267 -323 565 -747 1229 -1225 1914
-363 522 -631 950 -772 1235 -35 72 -69 133 -75 137 -25 16 -111 -19 -128 -52
-19 -34 -62 -555 -76 -894 -3 -88 -8 -169 -9 -180 -2 -11 -4 -69 -5 -130 -1
-60 -3 -105 -5 -100 -2 6 -38 240 -80 520 -139 935 -155 1038 -166 1077 -7 27
-104 159 -317 431 -521 665 -676 871 -885 1173 -97 141 -100 155 -53 235 20
33 36 67 36 75 0 7 -27 121 -60 251 -52 210 -82 352 -161 762 -13 69 -16 106
-10 111 6 3 77 61 159 129 l148 123 329 144 c182 79 416 187 520 239 105 52
196 95 203 95 7 0 12 3 12 6 0 4 -21 106 -46 228 -28 140 -63 273 -94 361 -44
128 -218 608 -234 646 -10 22 143 200 341 396 117 116 153 157 153 176 0 14
36 169 79 344 142 567 197 820 261 1198 75 438 102 707 104 1020 l1 210 -74
105 c-113 159 -175 240 -418 542 -242 301 -361 458 -466 614 -58 85 -69 108
-74 155 -7 74 3 116 107 450 104 332 370 1111 385 1127 2 2 79 25 171 52 300
86 549 182 806 311 111 56 248 135 248 144 0 2 -5 15 -11 28 -19 41 -37 46
-134 31 -106 -15 -387 -46 -391 -42 -1 2 32 41 73 88 98 111 252 316 346 460
86 132 177 289 177 305 0 7 -10 16 -23 22 -19 9 -39 1 -137 -56 -63 -37 -186
-106 -272 -154 -87 -48 -233 -132 -325 -187 -92 -55 -170 -100 -174 -100 -4 0
10 53 32 118 52 152 125 437 188 736 48 225 50 239 34 252 -10 7 -25 13 -33
14 -8 0 -59 -51 -113 -113 -53 -61 -130 -148 -171 -191 l-73 -80 -224 87
c-123 47 -269 102 -324 122 -232 85 -216 77 -248 128 -34 56 -34 59 -13 297 8
102 20 300 26 440 21 504 -14 1355 -70 1683 -21 124 -26 133 -215 387 -323
433 -673 802 -1076 1132 -154 126 -235 183 -304 213 l-57 25 7 73 c3 39 7 135
8 212 2 116 -1 145 -15 171 -20 37 -102 103 -436 354 -577 432 -1300 920
-1383 932 -16 2 -48 36 -102 108 -129 170 -417 503 -519 599 -163 152 -1442
339 -2848 416 -303 16 -1105 37 -1270 33 -58 -2 -168 -4 -245 -5z"/>
</g>
</svg>
